<?xml version="1.0" encoding="UTF-8" standalone="no"?>
<svg
   xmlns:dc="http://purl.org/dc/elements/1.1/"
   xmlns:cc="http://creativecommons.org/ns#"
   xmlns:rdf="http://www.w3.org/1999/02/22-rdf-syntax-ns#"
   xmlns:svg="http://www.w3.org/2000/svg"
   xmlns="http://www.w3.org/2000/svg"
   width="7.0758257mm"
   height="7.0696974mm"
   viewBox="0 0 7.0758256 7.0696974"
   version="1.1"
   id="svg8">
  <defs
     id="defs2">
    <style
       id="style833">.cls-1{fill:#1e1e1c;}</style>
    <style
       id="style904">.cls-1{fill:#1e1e1c;}</style>
  </defs>
  <metadata
     id="metadata5">
    <rdf:RDF>
      <cc:Work
         rdf:about="">
        <dc:format>image/svg+xml</dc:format>
        <dc:type
           rdf:resource="http://purl.org/dc/dcmitype/StillImage" />
        <dc:title></dc:title>
      </cc:Work>
    </rdf:RDF>
  </metadata>
  <g
     id="layer1"
     transform="translate(-107.21086,-94.85551)">
    <g
       id="g928"
       transform="matrix(0.26458333,0,0,0.26458333,104.13578,93.098677)">
      <path
         class="cls-1"
         d="m 18.82,23.37 -1.31,1.31 a 8,8 0 0 1 -0.83,-3.54 0.87,0.87 0 1 1 1.73,0 6.35,6.35 0 0 0 0.41,2.23 z"
         id="path910"
         style="fill:#d31e1c;fill-opacity:1" />
      <path
         class="cls-1"
         d="m 25.58,29.13 v 2.45 h 2.14 a 0.87,0.87 0 0 1 0,1.74 h -6 a 0.87,0.87 0 1 1 0,-1.74 h 2.13 v -2.45 a 7.88,7.88 0 0 1 -3.68,-1.38 l 1.25,-1.25 a 6.29,6.29 0 0 0 9.58,-5.36 0.87,0.87 0 0 1 1.74,0 8.06,8.06 0 0 1 -7.16,7.99 z"
         id="path912"
         style="fill:#d31e1c;fill-opacity:1" />
      <path
         class="cls-1"
         d="m 27.89,20 v 1.5 a 3.18,3.18 0 0 1 -4.42,2.93 v 0 L 22.2,25.7 a 4.78,4.78 0 0 0 2.52,0.71 4.91,4.91 0 0 0 4.91,-4.91 V 18.29 Z M 24.71,6.64 a 4.91,4.91 0 0 0 -4.91,4.91 v 10 a 4.25,4.25 0 0 0 0.07,0.8 l 1.67,-1.67 v -9.1 a 3.18,3.18 0 1 1 6.35,0 v 2.72 l 1.73,-1.73 v -1 A 4.91,4.91 0 0 0 24.71,6.64 Z"
         id="path914"
         style="fill:#d31e1c;fill-opacity:1" />
      <path
         class="cls-1"
         d="m 38.09,8.33 -8.55,8.53 -1.65,1.65 -6.89,6.84 -0.79,0.79 -1.17,1.15 -5.81,5.8 a 1,1 0 0 1 -0.68,0.27 0.93,0.93 0 0 1 -0.67,-0.27 1,1 0 0 1 0,-1.34 L 36.74,7 a 1,1 0 0 1 1.35,0 0.94,0.94 0 0 1 0,1.33 z"
         id="path916"
         style="fill:#e61e1c;fill-opacity:1" />
    </g>
  </g>
</svg>
