<?xml version="1.0" encoding="UTF-8" standalone="no"?>
<svg
   xmlns:dc="http://purl.org/dc/elements/1.1/"
   xmlns:cc="http://creativecommons.org/ns#"
   xmlns:rdf="http://www.w3.org/1999/02/22-rdf-syntax-ns#"
   xmlns:svg="http://www.w3.org/2000/svg"
   xmlns="http://www.w3.org/2000/svg"
   width="4.2518539mm"
   height="7.0670209mm"
   viewBox="0 0 4.2518539 7.0670209"
   version="1.1"
   id="svg8">
  <defs
     id="defs2">
    <style
       id="style833">.cls-1{fill:#1e1e1c;}</style>
  </defs>
  <metadata
     id="metadata5">
    <rdf:RDF>
      <cc:Work
         rdf:about="">
        <dc:format>image/svg+xml</dc:format>
        <dc:type
           rdf:resource="http://purl.org/dc/dcmitype/StillImage" />
        <dc:title></dc:title>
      </cc:Work>
    </rdf:RDF>
  </metadata>
  <g
     id="layer1"
     transform="translate(-108.24312,-96.252203)">
    <g
       id="g851"
       transform="matrix(0.26458333,0,0,0.26458333,103.7624,94.498016)">
      <path
         class="cls-1"
         d="m 33,21.16 a 0.87,0.87 0 1 0 -1.73,0 6.3,6.3 0 1 1 -12.6,0 0.87,0.87 0 1 0 -1.73,0 8,8 0 0 0 7.16,8 V 31.6 H 22 a 0.87,0.87 0 0 0 0,1.74 h 6 A 0.87,0.87 0 0 0 28,31.6 H 25.87 V 29.15 A 8,8 0 0 0 33,21.16 Z"
         id="path839"
         style="fill:#1ea91c;fill-opacity:1" />
      <path
         class="cls-1"
         d="m 25,26.45 a 4.91,4.91 0 0 0 4.91,-4.91 v -10 a 4.91,4.91 0 0 0 -9.82,0 v 10 A 4.91,4.91 0 0 0 25,26.45 Z M 21.82,11.57 a 3.18,3.18 0 0 1 6.36,0 v 10 a 3.18,3.18 0 0 1 -6.36,0 z"
         id="path841"
         style="fill:#1ea91c;fill-opacity:1" />
    </g>
  </g>
</svg>
